<svg xmlns="http://www.w3.org/2000/svg" xmlns:xlink="http://www.w3.org/1999/xlink" version="1.1" x="0px" y="0px"
     viewBox="0 0 100 125" style="enable-background:new 0 0 100 100;" xml:space="preserve"><style type="text/css">
	.st0{fill:none;stroke:#000000;stroke-width:2;stroke-linecap:round;stroke-linejoin:round;stroke-miterlimit:10;}
</style>
    <g><path fill="white" d="M52.6,79.6c-5.9,0-10.7-4.8-10.7-10.7s4.8-10.7,10.7-10.7S63.2,63,63.2,68.9S58.5,79.6,52.6,79.6z M52.6,60.2   c-4.8,0-8.7,3.9-8.7,8.7s3.9,8.7,8.7,8.7s8.7-3.9,8.7-8.7S57.4,60.2,52.6,60.2z"/></g>
    <g><path fill="white" d="M46.2,48.5c-2.1,0-4.1-0.6-5.9-1.8c-0.3-0.2-0.5-0.6-0.4-0.9c0-0.3,0-0.6,0-0.9c0-2.9-1.5-5.5-3.9-7.1   c-0.3-0.2-0.5-0.6-0.4-0.9c0.5-5.4,5-9.6,10.5-9.6c5.9,0,10.7,4.7,10.7,10.6c0,2.8-1.1,5.5-3.1,7.6C51.8,47.3,49.1,48.4,46.2,48.5   C46.2,48.5,46.2,48.5,46.2,48.5z M41.9,45.3c1.3,0.8,2.8,1.1,4.4,1.1c2.3,0,4.5-0.9,6.1-2.6c1.6-1.6,2.5-3.8,2.5-6.1   c0-4.8-4-8.6-8.7-8.6c-4.3,0-7.8,3.1-8.5,7.3c2.6,2,4.2,5.1,4.2,8.4c0,0,0,0,0,0C41.9,45,41.9,45.2,41.9,45.3z"/></g>
    <g><path fill="white" d="M73.9,64.2c-5.9,0-10.7-4.8-10.7-10.7c0-5.9,4.8-10.7,10.7-10.7c5.9,0,10.7,4.8,10.7,10.7C84.6,59.5,79.8,64.2,73.9,64.2z    M73.9,44.9c-4.8,0-8.7,3.9-8.7,8.7s3.9,8.7,8.7,8.7s8.7-3.9,8.7-8.7S78.7,44.9,73.9,44.9z"/></g>
    <g><path fill="white" d="M31.2,55.6c-5.8,0-10.6-4.7-10.7-10.6c0-2.8,1.1-5.5,3.1-7.6c2-2,4.7-3.2,7.5-3.2c2.8,0,5.5,1.1,7.6,3.1   c2,2,3.2,4.7,3.2,7.5l0,0c0,2.8-1.1,5.5-3.1,7.6C36.8,54.4,34.2,55.5,31.2,55.6C31.3,55.6,31.3,55.6,31.2,55.6z M31.2,36.3   C31.2,36.3,31.2,36.3,31.2,36.3c-2.4,0-4.6,0.9-6.2,2.6c-1.6,1.6-2.5,3.8-2.5,6.1c0,4.7,3.9,8.6,8.7,8.6c0,0,0,0,0.1,0   c4.8,0,8.6-4,8.6-8.7l0,0c0-2.3-0.9-4.5-2.6-6.1C35.7,37.1,33.5,36.3,31.2,36.3z"/></g>
    <g><path fill="white" d="M55,66.5c-0.4-0.4-1-0.4-1.4,0l-1,1l-1-1c-0.4-0.4-1-0.4-1.4,0s-0.4,1,0,1.4l1,1l-1,1c-0.4,0.4-0.4,1,0,1.4   c0.2,0.2,0.5,0.3,0.7,0.3s0.5-0.1,0.7-0.3l1-1l1,1c0.2,0.2,0.5,0.3,0.7,0.3s0.5-0.1,0.7-0.3c0.4-0.4,0.4-1,0-1.4l-1-1l1-1   C55.4,67.5,55.4,66.8,55,66.5z"/>
        <path fill="white" d="M75.4,53.6l1-1c0.4-0.4,0.4-1,0-1.4s-1-0.4-1.4,0l-1,1l-1-1c-0.4-0.4-1-0.4-1.4,0s-0.4,1,0,1.4l1,1l-1,1   c-0.4,0.4-0.4,1,0,1.4c0.2,0.2,0.5,0.3,0.7,0.3s0.5-0.1,0.7-0.3l1-1l1,1c0.2,0.2,0.5,0.3,0.7,0.3s0.5-0.1,0.7-0.3   c0.4-0.4,0.4-1,0-1.4L75.4,53.6z"/>
        <path fill="white" d="M48.6,35.4c-0.4-0.4-1-0.4-1.4,0l-1,1l-1-1c-0.4-0.4-1-0.4-1.4,0s-0.4,1,0,1.4l1,1l-1,1c-0.4,0.4-0.4,1,0,1.4   c0.2,0.2,0.5,0.3,0.7,0.3s0.5-0.1,0.7-0.3l1-1l1,1c0.2,0.2,0.5,0.3,0.7,0.3s0.5-0.1,0.7-0.3c0.4-0.4,0.4-1,0-1.4l-1-1l1-1   C49,36.4,49,35.7,48.6,35.4z"/>
        <path fill="white" d="M33.7,42.5c-0.4-0.4-1-0.4-1.4,0l-1,1l-1-1c-0.4-0.4-1-0.4-1.4,0c-0.4,0.4-0.4,1,0,1.4l1,1l-1,1c-0.4,0.4-0.4,1,0,1.4   c0.2,0.2,0.5,0.3,0.7,0.3s0.5-0.1,0.7-0.3l1-1l1,1c0.2,0.2,0.5,0.3,0.7,0.3s0.5-0.1,0.7-0.3c0.4-0.4,0.4-1,0-1.4l-1-1l1-1   C34.1,43.5,34.1,42.9,33.7,42.5z"/></g>
</svg>
