<svg xmlns="http://www.w3.org/2000/svg" xmlns:xlink="http://www.w3.org/1999/xlink" version="1.1" x="0px" y="0px"
     viewBox="0 0 100 125" style="enable-background:new 0 0 100 100;" xml:space="preserve"><path d="M50,13.6c-20.1,0-36.4,16.3-36.4,36.4c0,15.6,9.9,29.4,24.7,34.5c0.5,0.2,1.1-0.1,1.3-0.6L50,53.1l10.4,30.7  c0.1,0.4,0.5,0.7,0.9,0.7c0.1,0,0.2,0,0.3-0.1c14.8-5,24.7-18.8,24.7-34.5C86.4,29.9,70.1,13.6,50,13.6z M62,82.2l-11-32.5  C50.8,49.3,50.4,49,50,49s-0.8,0.3-0.9,0.7L38,82.2c-13.4-5-22.4-17.8-22.4-32.2C15.6,31,31,15.6,50,15.6S84.4,31,84.4,50  C84.4,64.4,75.4,77.2,62,82.2z"/>
</svg>