<svg xmlns="http://www.w3.org/2000/svg" xmlns:xlink="http://www.w3.org/1999/xlink" version="1.1" x="0px" y="0px"
     viewBox="0 0 100 125" style="enable-background:new 0 0 100 100;" xml:space="preserve"><path  fill="white" d="M57.3369141,22.9667969v-2.1342773h0.2216797c1.3710938,0,2.4863281-1.1152344,2.4863281-2.4858398v-5.8603516  c0-1.3706055-1.1152344-2.4858398-2.4863281-2.4858398H42.4414062c-1.3710938,0-2.4863281,1.1152344-2.4863281,2.4858398v5.8603516  c0,1.3706055,1.1152344,2.4858398,2.4863281,2.4858398h0.2216797v2.1342773c0,3.2192383-1.2539062,6.246582-3.53125,8.5239258  c-2.6542969,2.6542969-4.1162109,6.1835938-4.1162109,9.9379883v44.0336914C35.015625,87.9643555,37.0507812,90,39.5527344,90  h20.8945312c2.5019531,0,4.5371094-2.0356445,4.5371094-4.5375977V41.4287109c0-3.7543945-1.4619141-7.2836914-4.1162109-9.9379883  C58.5908203,29.2133789,57.3369141,26.1860352,57.3369141,22.9667969z M41.9550781,18.3466797v-5.8603516  c0-0.2680664,0.2177734-0.4858398,0.4863281-0.4858398h15.1171875c0.2685547,0,0.4863281,0.2177734,0.4863281,0.4858398v5.8603516  c0,0.2680664-0.2177734,0.4858398-0.4863281,0.4858398H42.4414062  C42.1728516,18.8325195,41.9550781,18.6147461,41.9550781,18.3466797z M62.984375,85.4624023  C62.984375,86.8618164,61.8466797,88,60.4472656,88H39.5527344c-1.3994141,0-2.5371094-1.1381836-2.5371094-2.5375977V41.4287109  c0-3.2202148,1.2539062-6.2470703,3.5302734-8.5239258c2.6552734-2.6547852,4.1171875-6.184082,4.1171875-9.9379883v-2.1342773  h10.6738281v2.1342773c0,3.7539062,1.4619141,7.2832031,4.1171875,9.9379883  c2.2763672,2.2768555,3.5302734,5.3037109,3.5302734,8.5239258V85.4624023z"/>
    </svg>