<svg xmlns="http://www.w3.org/2000/svg" xmlns:xlink="http://www.w3.org/1999/xlink" version="1.1" x="0px" y="0px"
     viewBox="0 0 100 125" style="enable-background:new 0 0 100 100;" xml:space="preserve"><path d="M22.6455078,47.8154297h-2.6503906c-0.5527344,0-1,0.4477539-1,1s0.4472656,1,1,1h2.6503906c0.5527344,0,1-0.4477539,1-1  S23.1982422,47.8154297,22.6455078,47.8154297z"/>
    <path d="M31.6044922,39.7734375h2.6503906c0.5527344,0,1-0.4477539,1-1s-0.4472656-1-1-1h-2.6503906c-0.5527344,0-1,0.4477539-1,1  S31.0517578,39.7734375,31.6044922,39.7734375z"/>
    <path d="M31.9052734,56.8969727c0-0.5522461-0.4472656-1-1-1h-2.6503906c-0.5527344,0-1,0.4477539-1,1s0.4472656,1,1,1h2.6503906  C31.4580078,57.8969727,31.9052734,57.4492188,31.9052734,56.8969727z"/>
    <path d="M36.9052734,69.8637695h-2.6503906c-0.5527344,0-1,0.4477539-1,1s0.4472656,1,1,1h2.6503906c0.5527344,0,1-0.4477539,1-1  S37.4580078,69.8637695,36.9052734,69.8637695z"/>
    <path d="M46.7080078,62.7138672h-2.6503906c-0.5527344,0-1,0.4477539-1,1s0.4472656,1,1,1h2.6503906c0.5527344,0,1-0.4477539,1-1  S47.2607422,62.7138672,46.7080078,62.7138672z"/>
    <path d="M42.3349609,49h-2.6503906c-0.5527344,0-1,0.4477539-1,1s0.4472656,1,1,1h2.6503906c0.5527344,0,1-0.4477539,1-1  S42.8876953,49,42.3349609,49z"/>
    <path d="M22.6455078,71.1914062h-2.6503906c-0.5527344,0-1,0.4477539-1,1s0.4472656,1,1,1h2.6503906c0.5527344,0,1-0.4477539,1-1  S23.1982422,71.1914062,22.6455078,71.1914062z"/>
    <path d="M34.2548828,78.6616211h-2.6503906c-0.5527344,0-1,0.4477539-1,1s0.4472656,1,1,1h2.6503906c0.5527344,0,1-0.4477539,1-1  S34.8076172,78.6616211,34.2548828,78.6616211z"/>
    <path d="M89.3896484,54.4775391l-5.1464844-25.2333984C81.9746094,18.1191406,72.1044922,10.0375977,60.7578125,10  c-0.015625,0.0004883-0.03125,0.0009766-0.0488281,0c-0.0166016,0-0.0322266-0.0004883-0.0478516,0  c-11.0801392,0.0349731-20.5220337,7.4623413-23.2174683,18.1524048c-1.4420166-0.3609619-2.9391479-0.5661011-4.4749146-0.5713501  c-0.0126953-0.0009766-0.0263672-0.0004883-0.0390625,0c-0.0126953-0.0004883-0.0273438-0.0009766-0.0390625,0  c-8.8955078,0.0302734-16.6318359,6.3657227-18.4111328,15.0869141l-3.9863281,19.5458984  c-2.1464844,10.5185547,2.9960938,21.0820312,12.5058594,25.6879883C25.8730469,89.2939453,29.1210938,90,32.6513672,90h0.5566406  c3.5302734,0,6.7783203-0.7060547,9.6523438-2.0981445c1.0526733-0.5098877,2.0422974-1.1038208,2.9840088-1.7515259  c0.7717896,0.4667969,1.4420776,0.8170166,2.1712646,1.1699829C51.6865234,89.0986328,55.8369141,90,60.3496094,90h0.71875  c4.5126953,0,8.6630859-0.9013672,12.3339844-2.6796875C85.5585938,81.4326172,92.1328125,67.9267578,89.3896484,54.4775391z   M41.9892578,86.1020508C39.3886719,87.3613281,36.4335938,88,33.2080078,88h-0.5566406  c-3.2255859,0-6.1806641-0.6386719-8.78125-1.8979492c-8.5478516-4.140625-13.3496094-14.019043-11.4179688-23.4887695  l3.9863281-19.5458984c1.5927734-7.8061523,8.5263672-13.4746094,16.4912109-13.4863281  c7.9648438,0.0117188,14.8984375,5.6801758,16.4912109,13.4863281l3.9863281,19.5458984  C55.3388672,72.0830078,50.5371094,81.9614258,41.9892578,86.1020508z M61.0683594,88h-0.71875  c-4.2080078,0-8.0654297-0.8344727-11.4619141-2.4794922c-0.5044556-0.2443237-0.9206543-0.4584351-1.3139038-0.6762085  c6.4143677-5.3775635,9.5502319-14.0163574,7.7924194-22.6304321l-3.9863281-19.5458984  c-1.3337402-6.5372925-6.0147705-11.7336426-12.0220337-13.9391479C41.8030396,18.8684082,50.5021362,12.0144043,60.7089844,12  c10.421875,0.0146484,19.4912109,7.4301758,21.5751953,17.6435547l5.1464844,25.2333984  C89.9902344,67.4301758,83.8632812,80.03125,72.53125,85.5205078C69.1337891,87.1655273,65.2763672,88,61.0683594,88z"/>
    <path d="M62.7744141,22.1489258h3.421875c0.5527344,0,1-0.4477539,1-1s-0.4472656-1-1-1h-3.421875c-0.5527344,0-1,0.4477539-1,1  S62.2216797,22.1489258,62.7744141,22.1489258z"/>
    <path d="M62.5175781,47.8466797c0-0.5522461-0.4472656-1-1-1h-3.421875c-0.5527344,0-1,0.4477539-1,1s0.4472656,1,1,1h3.421875  C62.0703125,48.8466797,62.5175781,48.3989258,62.5175781,47.8466797z"/>
    <path d="M74.8515625,38.7709961h-3.4208984c-0.5527344,0-1,0.4477539-1,1s0.4472656,1,1,1h3.4208984c0.5527344,0,1-0.4477539,1-1  S75.4042969,38.7709961,74.8515625,38.7709961z"/>
    <path d="M59.265625,28.5810547c0-0.5522461-0.4472656-1-1-1H54.84375c-0.5527344,0-1,0.4477539-1,1s0.4472656,1,1,1h3.421875  C58.8183594,29.5810547,59.265625,29.1333008,59.265625,28.5810547z"/>
    <path d="M81.3535156,57.9892578c0-0.5522461-0.4472656-1-1-1h-3.4208984c-0.5527344,0-1,0.4477539-1,1s0.4472656,1,1,1h3.4208984  C80.90625,58.9892578,81.3535156,58.5415039,81.3535156,57.9892578z"/>
    <path d="M65.4853516,61.3862305c0-0.5522461-0.4472656-1-1-1h-3.421875c-0.5527344,0-1,0.4477539-1,1s0.4472656,1,1,1h3.421875  C65.0380859,62.3862305,65.4853516,61.9384766,65.4853516,61.3862305z"/>
    <path d="M67.9072266,75.9438477h-3.421875c-0.5527344,0-1,0.4477539-1,1s0.4472656,1,1,1h3.421875c0.5527344,0,1-0.4477539,1-1  S68.4599609,75.9438477,67.9072266,75.9438477z"/>
</svg>