<svg xmlns="http://www.w3.org/2000/svg" xmlns:xlink="http://www.w3.org/1999/xlink" version="1.1" x="0px" y="0px"
     viewBox="0 0 100 125" style="enable-background:new 0 0 100 100;" xml:space="preserve"><path  fill="white" d="M27.0751953,10c-0.5527344,0-1,0.4472656-1,1v9.7587891c-1.3759766-0.0537109-3.9863281-0.3847656-5.7490234-2.0214844  c-1.2177734-1.1308594-1.8349609-2.7412109-1.8349609-4.7861328c0-0.5527344-0.4472656-1-1-1s-1,0.4472656-1,1  c0,2.6240234,0.8320312,4.7275391,2.4746094,6.2519531c2.2719116,2.1100464,5.4642944,2.5010376,7.109375,2.5546265v1.9727173  c0,9.8398438,8.0058594,17.8457031,17.8457031,17.8457031h5.6240234c3.0786133,0,6.3397827,1.3065186,8.7529907,3.4517212  c0.0072021,0.006897,0.0142212,0.0130005,0.0216064,0.0196533c2.1746826,1.9419556,3.6570435,4.5651245,3.6570435,7.5549927  v9.0058594c-4.9462891-1.2636719-10.2773438,0.15625-13.9160156,3.7939453  c-1.2148438,1.2148438-2.1933594,2.6132812-2.9111328,4.15625c-0.1523438,0.328125-0.1152344,0.7128906,0.0957031,1.0068359  c0.1865234,0.2578125,4.6220703,6.3203125,10.2109375,6.3203125c0.6435547,0,1.2978516-0.0810547,1.9560547-0.2412109  c-0.1601562,0.6591797-0.2412109,1.3125-0.2412109,1.9560547c0,5.5888672,6.0634766,10.0244141,6.3212891,10.2109375  C63.6660156,89.9365234,63.8710938,90,64.0771484,90c0.1435547,0,0.2871094-0.03125,0.421875-0.09375  c1.5439453-0.7177734,2.9423828-1.6972656,4.1552734-2.9101562c4.4208984-4.421875,5.4921875-11.1337891,2.7773438-16.6796875  c7.3730469-3.3222656,12.0771484-10.5429688,12.0771484-18.6953125v-4.3408203  c0-7.8370972-3.4188232-14.8886719-8.8404541-19.7491455c-0.0272217-0.0217285-0.0482178-0.048584-0.0780029-0.0675049  c-4.6877441-4.1702271-10.8560181-6.7106934-17.6088867-6.7106934h-28.90625V11C28.0751953,10.4472656,27.6279297,10,27.0751953,10z   M43.9208984,40.5761719c-8.7373047,0-15.8457031-7.1083984-15.8457031-15.8457031v-1.9775391h25.7740479  c0.6854248,2.4910889,2.6239014,11.5881348-3.3751221,17.869812c-0.3104858-0.0223999-0.6212158-0.0465698-0.9291992-0.0465698  H43.9208984z M69.6679688,68.8876953c-0.2744141,0.1064453-0.4873047,0.3271484-0.5830078,0.6044922  c-0.0966797,0.2783203-0.0664062,0.5830078,0.0830078,0.8359375c2.9111328,4.9345703,2.1181641,11.2070312-1.9277344,15.2539062  c-0.9033203,0.9023438-1.9238281,1.6552734-3.0419922,2.2421875c-1.3251953-1.0859375-5.0273438-4.4599609-5.0273438-8.2236328  c0-1.0205078,0.2763672-2.0966797,0.8212891-3.1962891c0.1914062-0.3847656,0.1152344-0.8476562-0.1884766-1.1513672  c-0.1923828-0.1923828-0.4482422-0.2929688-0.7070312-0.2929688c-0.1513672,0-0.3027344,0.0341797-0.4443359,0.1044922  c-1.0986328,0.5449219-2.1748047,0.8212891-3.1962891,0.8212891c-3.7636719,0-7.1376953-3.7011719-8.2236328-5.0263672  c0.5859375-1.1171875,1.3388672-2.1386719,2.2421875-3.0429688c3.4257812-3.4238281,8.5908203-4.5673828,13.1621094-2.9140625  c0.3066406,0.1113281,0.6484375,0.0664062,0.9140625-0.1220703c0.2666016-0.1865234,0.4257812-0.4921875,0.4257812-0.8183594  v-6.9912109c2.9556885-0.2450562,11.9968262-1.34021,17.5322266-5.7825928v0.4329834  C81.5087891,59.3193359,76.8603516,66.0976562,69.6679688,68.8876953z M81.5087891,47.2802734v1.192627  c-4.6181641,4.9129028-14.3364258,6.1928711-17.5322266,6.4855957v-1.355957c0-2.87854-1.1432495-5.47052-2.9300537-7.5750732  c4.4048462-0.9432983,8.1317139-4.0328979,10.8626709-9.0421143c1.4116211-2.5899658,2.2509766-5.116394,2.699707-6.7340088  C78.8757324,34.6665649,81.5087891,40.6699829,81.5087891,47.2802734z M72.9459229,28.6829224  c-0.6507568,2.7365112-4.0358887,14.6568604-13.6610718,15.5871582c-1.8766479-1.5747681-4.1450806-2.7054443-6.4741211-3.2739868  c5.3535156-6.5708008,3.9347534-15.0211792,3.1136475-18.2431641h1.0570679  C63.0748901,22.7529297,68.6519165,24.9915771,72.9459229,28.6829224z"/>
</svg>