<svg xmlns="http://www.w3.org/2000/svg" xmlns:xlink="http://www.w3.org/1999/xlink" version="1.1" x="0px" y="0px"
     viewBox="0 0 100 125" style="enable-background:new 0 0 100 100;" xml:space="preserve"><path d="M50,38.724c-6.218,0-11.277,5.059-11.277,11.276S43.782,61.276,50,61.276S61.277,56.218,61.277,50S56.218,38.724,50,38.724z   M50,59.276c-5.115,0-9.277-4.161-9.277-9.276s4.162-9.276,9.277-9.276s9.277,4.161,9.277,9.276S55.115,59.276,50,59.276z"/>
    <path d="M50,31.893c-9.984,0-18.107,8.123-18.107,18.107S40.016,68.107,50,68.107S68.107,59.984,68.107,50S59.984,31.893,50,31.893z   M50,66.107c-8.882,0-16.107-7.226-16.107-16.107S41.118,33.893,50,33.893S66.107,41.118,66.107,50S58.882,66.107,50,66.107z"/>
    <path d="M89.104,42.583c0.282-0.029,0.539-0.178,0.705-0.407s0.228-0.52,0.168-0.797c-1.035-4.824-2.926-9.382-5.619-13.547  c-0.154-0.238-0.402-0.399-0.682-0.444c-0.276-0.045-0.565,0.031-0.786,0.21c-2.972,2.398-7.25,2.171-9.955-0.533  c-2.704-2.704-2.933-6.983-0.533-9.954c0.178-0.221,0.254-0.507,0.209-0.787c-0.044-0.279-0.206-0.527-0.444-0.682  c-4.165-2.692-8.723-4.584-13.547-5.619c-0.28-0.059-0.567,0-0.797,0.168c-0.229,0.166-0.378,0.423-0.408,0.705  c-0.4,3.802-3.589,6.669-7.417,6.669s-7.016-2.867-7.417-6.669c-0.03-0.282-0.178-0.539-0.408-0.705  c-0.229-0.167-0.517-0.225-0.797-0.168c-4.824,1.035-9.382,2.927-13.547,5.619c-0.238,0.154-0.4,0.402-0.444,0.682  c-0.045,0.28,0.031,0.566,0.209,0.787c2.4,2.971,2.171,7.25-0.533,9.954c-2.704,2.703-6.984,2.933-9.955,0.533  c-0.221-0.179-0.509-0.255-0.786-0.21c-0.28,0.045-0.528,0.206-0.682,0.444c-2.693,4.165-4.583,8.723-5.619,13.547  c-0.06,0.277,0.001,0.567,0.168,0.797s0.423,0.378,0.705,0.407c3.802,0.4,6.668,3.589,6.668,7.417s-2.867,7.017-6.668,7.417  c-0.282,0.029-0.539,0.178-0.705,0.407s-0.228,0.52-0.168,0.797c1.035,4.823,2.925,9.381,5.619,13.547  c0.154,0.238,0.402,0.399,0.682,0.444c0.277,0.048,0.565-0.03,0.786-0.21c2.971-2.4,7.25-2.172,9.955,0.533  c2.704,2.704,2.933,6.983,0.533,9.954c-0.178,0.221-0.254,0.507-0.209,0.787c0.044,0.279,0.206,0.527,0.444,0.682  c4.165,2.692,8.723,4.584,13.547,5.619c0.278,0.057,0.566-0.002,0.797-0.168c0.229-0.166,0.378-0.423,0.408-0.705  c0.4-3.802,3.589-6.669,7.417-6.669s7.016,2.867,7.417,6.669c0.03,0.282,0.178,0.539,0.408,0.705c0.172,0.125,0.378,0.19,0.587,0.19  c0.07,0,0.14-0.008,0.21-0.022c4.824-1.035,9.382-2.927,13.547-5.619c0.238-0.154,0.4-0.402,0.444-0.682  c0.045-0.28-0.031-0.566-0.209-0.787c-2.4-2.971-2.171-7.25,0.533-9.954c2.703-2.704,6.983-2.934,9.955-0.533  c0.221,0.18,0.51,0.258,0.786,0.21c0.28-0.045,0.528-0.206,0.682-0.444c2.693-4.166,4.584-8.724,5.619-13.547  c0.06-0.277-0.001-0.567-0.168-0.797s-0.423-0.378-0.705-0.407c-3.802-0.4-6.668-3.589-6.668-7.417S85.302,42.983,89.104,42.583z   M80.436,50c0,4.476,3.091,8.262,7.353,9.224c-0.941,3.87-2.469,7.553-4.552,10.971c-3.692-2.328-8.552-1.835-11.714,1.327  c-3.162,3.162-3.655,8.021-1.327,11.714c-3.418,2.084-7.1,3.611-10.972,4.553c-0.962-4.262-4.748-7.353-9.223-7.353  s-8.261,3.091-9.223,7.353c-3.872-0.941-7.553-2.469-10.972-4.553c2.329-3.692,1.835-8.552-1.327-11.714  c-3.162-3.161-8.022-3.658-11.714-1.326c-2.083-3.419-3.611-7.102-4.552-10.972c4.262-0.962,7.353-4.748,7.353-9.224  s-3.091-8.262-7.353-9.224c0.941-3.871,2.469-7.554,4.552-10.972c3.693,2.331,8.552,1.836,11.714-1.326  c3.162-3.162,3.655-8.021,1.327-11.714c3.418-2.084,7.1-3.611,10.972-4.553c0.962,4.262,4.748,7.353,9.223,7.353  s8.261-3.091,9.223-7.353c3.872,0.941,7.553,2.469,10.972,4.553c-2.329,3.692-1.835,8.552,1.327,11.714s8.023,3.654,11.714,1.326  c2.083,3.418,3.611,7.101,4.552,10.972C83.526,41.738,80.436,45.524,80.436,50z"/></svg>