<svg xmlns="http://www.w3.org/2000/svg" xmlns:xlink="http://www.w3.org/1999/xlink" version="1.1" x="0px" y="0px"
     viewBox="0 0 100 125" style="enable-background:new 0 0 100 100;" xml:space="preserve"><path d="M55.2817383,11.2592773c0.0805664-0.300293,0.0170898-0.6210938-0.1723633-0.8676758  C54.9199219,10.1445312,54.6269531,10,54.315918,10h-8.515625c-0.4677734,0-0.8735352,0.324707-0.9755859,0.78125  c-0.9171753,4.0892334-0.1945801,8.1652832,0.218811,9.9332275c-4.8276367,1.9266357-8.2525024,6.6401367-8.2525024,12.1468506  v44.0561523C36.7910156,84.1313477,42.659668,90,49.8730469,90c7.2138672,0,13.0825195-5.8686523,13.0825195-13.0825195V32.8613281  c0-5.6624146-3.6229858-10.4820557-8.6674805-12.2989502C53.7039185,17.2168579,55.2650146,11.3215942,55.2817383,11.2592773z   M38.7910156,76.9174805V32.8613281c0-5.7733154,4.4386597-10.5235596,10.0820312-11.0313721v66.1193848  C43.2296753,87.4415283,38.7910156,82.6907959,38.7910156,76.9174805z M60.9555664,32.8613281v44.0561523  c0,5.7733154-4.4391479,10.5240479-10.0825195,11.0318604V21.8299561  C56.5164185,22.3377686,60.9555664,27.0880127,60.9555664,32.8613281z M49.8730469,19.7792969  c-1.0015869,0-1.9732056,0.1236572-2.9108276,0.3378296C46.6170654,18.5716553,46.0651245,15.3082886,46.6230469,12h6.421875  c-0.4099731,1.8278198-1.0469971,5.2716064-0.8275146,8.0013428C51.4554443,19.8627319,50.6743774,19.7792969,49.8730469,19.7792969  z"/>
</svg>